#!OML:ASF E:\basketball\basketball\Project 1\Capture day 1\Session 1\Subject.ASF
:FULLY-SPECIFIED
:DEGREES
65
root 15.7516 14.6794 1.22804 -160.677 67.6006 -160.699
lowerback 12.0968 -3.03704 -2.29257
upperback 7.62056 -3.73194 3.14064
thorax 1.6001 -1.82569 4.9557
lowerneck -7.0161 1.33825 -10.8001
upperneck -11.4728 3.5487 9.43113
head -2.58749 2.18686 4.64393
rclavicle -2.66371e-014 3.33958e-014
rhumerus -21.7141 -21.2643 -76.0924
rradius 109.073
rwrist -56.3297
rhand -22.6439 25.1586
rfingers 7.12502
rthumb 3.78703 -4.78752
lclavicle -2.66371e-014 3.33958e-014
lhumerus -52.9594 -3.78695 95.6875
lradius 35.2274
lwrist 7.11778
lhand -25.2291 34.8524
lfingers 7.12502
lthumb 1.29035 64.8282
rfemur -29.7156 -4.98897 20.1847
rtibia 55.0361
rfoot -22.2242 -0.595935
rtoes -38.7346
lfemur 1.58474 13.4433 -10.2658
ltibia 101.049
lfoot -1.67741 3.47684
ltoes -15.1568
66
root 16.3159 14.7078 0.995431 -162.694 66.3299 -163.035
lowerback 12.0409 -2.986 -2.55658
upperback 7.39096 -3.70744 2.89652
thorax 1.38487 -1.81614 4.84806
lowerneck -6.58349 0.886968 -10.7247
upperneck -11.5928 2.961 10.1349
head -2.63002 1.86781 4.85392
rclavicle 8.54774e-015 -1.86858e-014
rhumerus -22.167 -22.1694 -75.1687
rradius 109.583
rwrist -55.5385
rhand -22.6294 24.3035
rfingers 7.12502
rthumb 3.80098 -5.64236
lclavicle 8.54774e-015 -1.86858e-014
lhumerus -54.869 -3.99168 97.0954
lradius 33.6594
lwrist 7.16436
lhand -22.7623 36.4896
lfingers 7.12502
lthumb 3.67265 66.4377
rfemur -26.8245 -5.60482 19.3339
rtibia 54.9096
rfoot -23.3926 -3.48817
rtoes -42.6235
lfemur -2.93992 13.0945 -11.6736
ltibia 103.837
lfoot -1.52237 1.77757
ltoes -14.9588
67
root 16.8697 14.7266 0.762308 -164.397 64.8473 -165.012
lowerback 12.0104 -2.96279 -2.75663
upperback 7.17676 -3.71053 2.70314
thorax 1.1749 -1.81773 4.76194
lowerneck -6.08648 0.448544 -10.4923
upperneck -11.7735 2.36771 10.6341
head -2.69518 1.54129 4.97417
rclavicle 3.27995e-014 3.57812e-015
rhumerus -22.5197 -23.0258 -74.0417
rradius 109.922
rwrist -54.6824
rhand -22.3364 22.9088
rfingers 7.12502
rthumb 4.0839 -7.03179
lclavicle 3.27995e-014 3.57812e-015
lhumerus -57.1957 -4.30407 98.6023
lradius 33.3899
lwrist 7.82844
lhand -20.7992 38.0377
lfingers 7.12502
lthumb 5.5682 67.9446
rfemur -23.7111 -6.12896 18.6647
rtibia 54.528
rfoot -23.8186 -7.50651
rtoes -47.4542
lfemur -7.47971 12.4349 -13.3421
ltibia 106.101
lfoot -1.79339 0.580233
ltoes -14.8456
68
root 17.4259 14.7592 0.520065 -165.617 63.1674 -166.589
lowerback 11.7765 -2.98667 -2.93796
upperback 7.02373 -3.7661 2.6897
thorax 1.15766 -1.85213 4.84619
lowerneck -5.51 -0.045259 -10.333
upperneck -12.2538 1.69846 10.8315
head -2.85477 1.18733 5.01605
rclavicle -8.24956e-014 3.45885e-014
rhumerus -22.6349 -23.8036 -72.7383
rradius 110.181
rwrist -53.587
rhand -21.8449 21.5285
rfingers 7.12502
rthumb 4.55857 -8.40242
lclavicle -8.24956e-014 3.45885e-014
lhumerus -59.6437 -4.53761 100.328
lradius 34.1418
lwrist 9.28228
lhand -19.06 39.0084
lfingers 7.12502
lthumb 7.24721 68.8643
rfemur -20.5379 -6.81496 18.1676
rtibia 53.7644
rfoot -23.7428 -9.80968
rtoes -49.5429
lfemur -12.1482 11.532 -15.1872
ltibia 107.7
lfoot -1.21121 0.964233
ltoes -13.7984
69
root 17.9946 14.8254 0.264214 -165.953 61.6785 -167.307
lowerback 11.4384 -2.93245 -2.84492
upperback 6.78451 -3.69931 2.70157
thorax 1.07378 -1.81745 4.78728
lowerneck -4.90424 -0.518502 -10.1515
upperneck -12.6226 1.04569 11.0544
head -2.98801 0.835144 5.064
rclavicle 2.0276e-014 -4.09496e-014
rhumerus -22.8925 -24.5646 -71.3874
rradius 110.315
rwrist -52.1817
rhand -21.1411 20.6737
rfingers 7.12502
rthumb 5.2381 -9.24151
lclavicle 2.0276e-014 -4.09496e-014
lhumerus -62.5418 -4.87441 102.142
lradius 35.6742
lwrist 11.6638
lhand -17.4991 38.7432
lfingers 7.12502
lthumb 8.75372 68.5417
rfemur -17.2522 -7.32594 18.0306
rtibia 52.4789
rfoot -23.9387 -9.36744
rtoes -49.0176
lfemur -16.5921 11.0406 -16.5809
ltibia 108.446
lfoot 0.430268 2.72556
ltoes -10.2108
70
root 18.5602 14.8826 0.00305358 -165.233 60.5747 -166.91
lowerback 10.8072 -2.73875 -2.32838
upperback 6.60075 -3.40778 2.76045
thorax 1.1586 -1.66247 4.50177
lowerneck -4.61595 -0.977159 -10.2468
upperneck -12.5801 0.442925 11.6025
head -2.94947 0.515249 5.25888
rclavicle 3.77691e-015 7.95139e-015
rhumerus -23.1395 -25.3132 -70.0298
rradius 110.361
rwrist -50.4038
rhand -20.5174 20.2003
rfingers 7.12502
rthumb 5.84026 -9.69925
lclavicle 3.77691e-015 7.95139e-015
lhumerus -65.527 -5.36237 104.091
lradius 37.4784
lwrist 14.3011
lhand -16.2934 37.4713
lfingers 7.12502
lthumb 9.91709 67.2177
rfemur -14.0142 -7.57706 18.3963
rtibia 50.8066
rfoot -23.5181 -8.42891
rtoes -48.5189
lfemur -20.7458 10.6332 -17.7444
ltibia 108.569
lfoot -2.41651 -1.52325
ltoes -13.7745
71
root 19.1308 14.9613 -0.275063 -164.146 59.7285 -165.919
lowerback 9.99745 -2.41828 -1.76088
upperback 6.65295 -2.93197 3.01925
thorax 1.5889 -1.41817 4.37281
lowerneck -4.5491 -1.49714 -10.7489
upperneck -12.4899 -0.211956 12.2427
head -2.84801 0.192061 5.55158
rclavicle 5.70512e-014 -4.13472e-014
rhumerus -22.9357 -26.0229 -68.5842
rradius 110.29
rwrist -48.1433
rhand -20.1374 20.1712
rfingers 7.12502
rthumb 6.20717 -9.7179
lclavicle 5.70512e-014 -4.13472e-014
lhumerus -68.0027 -5.78628 106.189
lradius 39.1336
lwrist 16.3984
lhand -15.1202 35.1347
lfingers 7.12502
lthumb 11.0488 64.8239
rfemur -10.4829 -7.7708 18.9748
rtibia 48.699
rfoot -22.1967 -7.74283
rtoes -49.0591
lfemur -24.3196 10.5524 -18.5894
ltibia 107.866
lfoot -3.20969 -2.00459
ltoes -17.6993
72
root 19.7001 15.0415 -0.556166 -163.52 59.046 -165.135
lowerback 9.55218 -2.02619 -1.37578
upperback 6.64217 -2.382 3.22806
thorax 1.7619 -1.13482 4.31451
lowerneck -3.92963 -1.96123 -11.0508
upperneck -12.6826 -0.842921 12.7626
head -2.9197 -0.144685 5.77882
rclavicle 4.63168e-014 -2.54444e-014
rhumerus -22.8231 -26.6765 -67.16
rradius 110.129
rwrist -45.3781
rhand -19.7138 20.5142
rfingers 7.12502
rthumb 6.6161 -9.36247
lclavicle 4.63168e-014 -2.54444e-014
lhumerus -70.7627 -6.09559 108.068
lradius 41.2591
lwrist 17.4206
lhand -13.0676 32.1365
lfingers 7.12502
lthumb 13.0281 61.7097
rfemur -6.7572 -8.07566 19.3519
rtibia 46.593
rfoot -20.424 -6.74749
rtoes -49.657
lfemur -27.3435 10.9205 -19.2128
ltibia 106.477
lfoot -3.70322 -1.97512
ltoes -22.8237
73
root 20.2777 15.1194 -0.835395 -163.133 58.5265 -164.457
lowerback 9.27817 -1.52298 -1.03369
upperback 6.55046 -1.69424 3.31824
thorax 1.7462 -0.779883 4.1572
lowerneck -3.0081 -2.50252 -11.0795
upperneck -12.8995 -1.62567 13.2132
head -3.02889 -0.581617 5.94379
rclavicle -3.67752e-014 -7.15625e-015
rhumerus -23.2231 -27.5349 -65.9237
rradius 110.201
rwrist -42.0861
rhand -18.9437 20.4612
rfingers 7.12502
rthumb 7.3595 -9.39085
lclavicle -3.67752e-014 -7.15625e-015
lhumerus -73.6778 -6.48474 109.621
lradius 43.4633
lwrist 17.2455
lhand -10.1176 29.3207
lfingers 7.12502
lthumb 15.8704 58.6903
rfemur -2.90129 -8.38071 19.5719
rtibia 44.1652
rfoot -18.2126 -4.49241
rtoes -49.7379
lfemur -29.7818 10.9534 -19.8297
ltibia 104.555
lfoot -4.07966 -1.93034
ltoes -21.7116
